Coordinates
version=1
nRows=10
nColumns=38
inDegrees=yes

Units are S.I. units (second, meters, Newtons, ...)
Angles are in degrees.

endheader
time	pelvis_tilt	pelvis_list	pelvis_rotation	pelvis_tx	pelvis_ty	pelvis_tz	hip_flexion_r	hip_adduction_r	hip_rotation_r	knee_angle_r	ankle_angle_r	subtalar_angle_r	mtp_angle_r	hip_flexion_l	hip_adduction_l	hip_rotation_l	knee_angle_l	ankle_angle_l	subtalar_angle_l	mtp_angle_l	lumbar_extension	lumbar_bending	lumbar_rotation	arm_flex_r	arm_add_r	arm_rot_r	elbow_flex_r	pro_sup_r	wrist_flex_r	wrist_dev_r	arm_flex_l	arm_add_l	arm_rot_l	elbow_flex_l	pro_sup_l	wrist_flex_l	wrist_dev_l
      1.00000000	     -0.23337474	     -0.61788714	      4.61084916	     -0.71591423	      0.91487561	      0.27035927	     -4.34061712	      5.16689405	     -6.67648487	    -12.33243399	     10.97427829	      2.59376227	      3.05895548	     26.82118113	      2.59468217	      3.77719784	    -31.93735062	      2.17914644	     -8.75724663	      7.81473703	     -7.13246225	      2.52948510	      0.52542996	      3.75297712	    -22.90346958	     12.99160911	     40.70825712	     86.51662706	      0.00000000	      0.00000000	     -3.14769225	    -15.10067219	     23.06527534	     15.62851451	     86.51662706	      0.00000000	      0.00000000
      1.01000000	      0.33434921	     -0.47166849	      4.80021863	     -0.70350418	      0.91415738	      0.26951015	     -6.31442625	      5.18858727	     -6.83955026	    -11.38317742	     11.10986583	      2.23009765	      2.76807268	     26.20755631	      2.83413756	      4.28188561	    -28.28417861	      1.37712260	     -9.74058558	     11.76876284	     -7.91257954	      2.46921055	      0.83125410	      3.76281621	    -23.20781379	     11.85784837	     42.16829729	     86.51662706	      0.00000000	      0.00000000	     -2.85806878	    -15.10928615	     24.62395053	     14.70710745	     86.51662706	      0.00000000	      0.00000000
      1.02000000	      0.58668636	     -0.42294793	      4.91638440	     -0.69106690	      0.91290278	      0.26876872	     -7.76704675	      5.25502799	     -6.94794296	    -10.79181972	     11.33137073	      2.07221555	      2.75048751	     25.95594028	      2.92428086	      4.59618993	    -24.85523253	      1.28180016	     -9.80263386	     13.16469406	     -8.29464174	      2.46975339	      1.03638952	      3.99660394	    -23.48107805	     11.30824510	     43.13990214	     86.51662706	      0.00000000	      0.00000000	     -2.82064442	    -15.10845302	     25.14897186	     14.14331388	     86.51662706	      0.00000000	      0.00000000
      1.03000000	      0.59720407	     -0.45157824	      4.97752807	     -0.67858628	      0.91123821	      0.26807750	     -8.81275843	      5.35263762	     -6.99776846	    -10.49282397	     11.60740658	      2.06826301	      2.95161017	     25.97619356	      2.89969736	      4.71821878	    -21.65693680	      1.73009904	     -9.09597504	     12.57160248	     -8.36968082	      2.52273181	      1.16182836	      4.38196130	    -23.72858336	     11.20168295	     43.74224725	     86.51662706	      0.00000000	      0.00000000	     -2.96902220	    -15.09222621	     24.86429619	     13.86047364	     86.51662706	      0.00000000	      0.00000000
      1.04000000	      0.45116443	     -0.53354381	      5.00539878	     -0.66604654	      0.90928210	      0.26736475	     -9.58237996	      5.46627285	     -6.98489385	    -10.41340516	     11.89906283	      2.15929072	      3.30683340	     26.16837984	      2.80219636	      4.64863105	    -18.70877470	      2.52336825	     -7.81314433	     10.69333553	     -8.24343285	      2.61731152	      1.23326617	      4.83343239	    -23.95535023	     11.36771810	     44.11526743	     86.51662706	      0.00000000	      0.00000000	     -3.22491440	    -15.05327748	     24.04574570	     13.76660845	     86.51662706	      0.00000000	      0.00000000
      1.05000000	      0.22734116	     -0.64609863	      5.01942698	     -0.65342158	      0.90714540	      0.26657278	    -10.19347614	      5.58163965	     -6.90775183	    -10.49192158	     12.16763171	      2.29422989	      3.75676803	     26.44676155	      2.67354346	      4.39772891	    -16.04722265	      3.46733542	     -6.15488267	      8.23056441	     -8.01367901	      2.74034106	      1.27643546	      5.27160535	    -24.16470295	     11.64204071	     44.38812236	     86.51662706	      0.00000000	      0.00000000	     -3.51533151	    -14.98557515	     22.96730707	     13.77300260	     86.51662706	      0.00000000	      0.00000000
      1.06000000	     -0.01144232	     -0.77001394	      5.03164764	     -0.64067617	      0.90494909	      0.26567856	    -10.73513915	      5.68525549	     -6.77028182	    -10.68665290	     12.38002953	      2.43842459	      4.25763194	     26.75000855	      2.55108183	      3.99349147	    -13.72674532	      4.39686786	     -4.31023830	      5.78560274	     -7.75773142	      2.87585506	      1.31402973	      5.63428854	    -24.35800511	     11.88937597	     44.65981109	     86.51662706	      0.00000000	      0.00000000	     -3.78285519	    -14.88722854	     21.86558402	     13.80535777	     86.51662706	      0.00000000	      0.00000000
      1.07000000	     -0.22143944	     -0.88827648	      5.04385329	     -0.62778199	      0.90280712	      0.26467810	    -11.26444310	      5.76345076	     -6.58406938	    -10.97649509	     12.51203550	      2.57605500	      4.78705222	     27.04061963	      2.46442673	      3.48643272	    -11.81669197	      5.18694717	     -2.44554870	      3.80555967	     -7.52723981	      3.00530640	      1.36357719	      5.88052067	    -24.53476812	     12.01541304	     44.99032073	     86.51662706	      0.00000000	      0.00000000	     -3.99024676	    -14.76226652	     20.92016901	     13.80902965	     86.51662706	      0.00000000	      0.00000000
      1.08000000	     -0.37743081	     -0.98381096	      5.04907425	     -0.61472349	      0.90080422	      0.26357227	    -11.81011335	      5.80155591	     -6.36885614	    -11.35618165	     12.54944325	      2.70750071	      5.34572156	     27.29776200	      2.43345223	      2.94729159	    -10.39185010	      5.75268733	     -0.69926146	      2.55868315	     -7.34783027	      3.10900916	      1.43606563	      5.98928363	    -24.69253101	     11.96971138	     45.40031284	     86.51662706	      0.00000000	      0.00000000	     -4.12097259	    -14.62013306	     20.24710793	     13.75000374	     86.51662706	      0.00000000	      0.00000000
      1.09000000	     -0.47076676	     -1.03985659	      5.03775246	     -0.60148198	      0.89900182	      0.26238428	    -12.37901935	      5.78430546	     -6.15107755	    -11.82919365	     12.48710290	      2.84331263	      5.95546552	     27.50825282	      2.46915276	      2.45614256	     -9.51577467	      6.04225854	      0.82009601	      2.13811243	     -7.22190243	      3.16839953	      1.53522813	      5.95541324	    -24.82651235	     11.74168875	     45.87703060	     86.51662706	      0.00000000	      0.00000000	     -4.17690062	    -14.47280779	     19.90216663	     13.61314019	     86.51662706	      0.00000000	      0.00000000
